# xmcd
#
# Track frame offsets: 
#        150
#        15330
#        24840
#        35507
#        48291
#        67241
#        80028
#        92743
#        105320
#        119161
#        132255
#        145053
#        155403
#        167978
#        186488
#
# Disc length: 2708 seconds
#
# Revision: 1
# Processed by: cddbd v1.5.2PL0 Copyright (c) Steve Scherf et al.
# Submitted via: ExactAudioCopy v0.95a3
#
DISCID=cb0a920f
DTITLE=Da Zillertaler und die Geigerin - Tiroler Heimweh
DYEAR=2008
DGENRE=Folk
TTITLE0=Da Zillertaler und die Geigerin
TTITLE1=In Gottes Natur
TTITLE2=Mei liaber Bua
TTITLE3=Mir kear´n Zam
TTITLE4=Tiroler Heimweh
TTITLE5=Allweil kusch nit lustig sein
TTITLE6=Bei uns in Tirol
TTITLE7=Aber aufg´spielt werd
TTITLE8=Anna Maria
TTITLE9=Löffel Martl-Boarischer
TTITLE10=Rosemarie
TTITLE11=Zillertal bei Nacht
TTITLE12=Im Jedermann´s da kear ma ein
TTITLE13=Hos´n oi-Medley
TTITLE14=Sag mir warum
EXTD=
EXTT0=
EXTT1=
EXTT2=
EXTT3=
EXTT4=
EXTT5=
EXTT6=
EXTT7=
EXTT8=
EXTT9=
EXTT10=
EXTT11=
EXTT12=
EXTT13=
EXTT14=
PLAYORDER=
